
<svg xmlns="http://www.w3.org/2000/svg" width="200" height="200" viewBox="0 0 200 200" fill="none" role="img" aria-label="HHGL">
  <defs>
    <linearGradient id="hhgl-g" x1="0" y1="0" x2="1" y2="1">
      <stop offset="0%" stop-color="#7eb1de"></stop>
      <stop offset="100%" stop-color="#4cc4b1"></stop>
    </linearGradient>
  </defs>
  <circle cx="100" cy="100" r="84" fill="url(#hhgl-g)"></circle>
  <circle cx="100" cy="100" r="78" fill="none" stroke="#fffdf8" stroke-width="1.5" opacity=".35"></circle>
  <circle cx="100" cy="100" r="78" fill="none" stroke="#fffdf8" stroke-width="1.5" stroke-dasharray="20 470" stroke-dashoffset="-50" stroke-linecap="round" opacity=".7"></circle>
  
  <path d="M75 56 L78.7 70.7 L80.9 85.4 L80.9 100 L78.7 114.6 L75 129.3 L71.3 144" stroke="#fffdf8" stroke-width="6" stroke-linecap="round" fill="none"></path>
  <path d="M75 56 L71.3 70.7 L69.1 85.4 L69.1 100 L71.3 114.6 L75 129.3 L78.7 144" stroke="#fffdf8" stroke-width="6" stroke-linecap="round" fill="none" opacity=".55"></path>
  <path d="M125 56 L128.7 70.7 L130.9 85.4 L130.9 100 L128.7 114.6 L125 129.3 L121.3 144" stroke="#fffdf8" stroke-width="6" stroke-linecap="round" fill="none"></path>
  <path d="M125 56 L121.3 70.7 L119.1 85.4 L119.1 100 L121.3 114.6 L125 129.3 L128.7 144" stroke="#fffdf8" stroke-width="6" stroke-linecap="round" fill="none" opacity=".55"></path>
  
  <g opacity=".4" stroke="#fffdf8" stroke-width="1.4">
    <line x1="68" y1="64.8" x2="82" y2="64.8"></line>
    <line x1="118" y1="64.8" x2="132" y2="64.8"></line>
    <line x1="68" y1="82.4" x2="82" y2="82.4"></line>
    <line x1="118" y1="82.4" x2="132" y2="82.4"></line>
    <line x1="68" y1="117.6" x2="82" y2="117.6"></line>
    <line x1="118" y1="117.6" x2="132" y2="117.6"></line>
    <line x1="68" y1="135.2" x2="82" y2="135.2"></line>
    <line x1="118" y1="135.2" x2="132" y2="135.2"></line>
  </g>
  <line x1="75" y1="100" x2="125" y2="100" stroke="#fffdf8" stroke-width="6.5" stroke-linecap="round"></line>
</svg>